<svg width="70" height="70" fill="none" xmlns="http://www.w3.org/2000/svg"><mask id="a" maskUnits="userSpaceOnUse" x="0" y="0" width="70" height="70"><path fill="#C4C4C4" d="M0 0h70v70H0z"/></mask><g mask="url(#a)"><path fill="#EE3643" d="M22.213-23l70.71 70.71-21.212 21.214L1-1.787z"/><path d="M34.453 19.11l6.93-6.93.99.99-2.871 6.93.049.049 4.9-4.9.891.89-6.93 6.93-.99-.99 2.871-6.93-.05-.049-4.9 4.9-.89-.89zm5.346 5.346l6.93-6.93 3.365 3.366-.693.693-2.475-2.475-2.276 2.277 2.178 2.178-.694.693-2.177-2.178-2.574 2.574 2.475 2.474-.693.694-3.366-3.366zm5.1 5.1l5.791-8.068.891.89-4.455 6.237.05.05 5.148-2.97.89.891-2.97 5.148.05.05 6.237-4.456.89.891-8.067 5.792-1.09-1.09 3.04-5.276-.04-.04-5.276 3.04-1.089-1.09z" fill="#fff"/></g></svg>